<?xml version="1.0" ?><!DOCTYPE svg  PUBLIC '-//W3C//DTD SVG 1.1//EN'  'http://www.w3.org/Graphics/SVG/1.1/DTD/svg11.dtd'><svg xmlns="http://www.w3.org/2000/svg" xmlns:xlink="http://www.w3.org/1999/xlink" xmlns:serif="http://www.serif.com/" width="100%" height="100%" viewBox="0 0 64 64" version="1.1" xml:space="preserve" style="fill-rule:evenodd;clip-rule:evenodd;stroke-linejoin:round;stroke-miterlimit:2;"><g transform="matrix(1,0,0,1,0,-0.221825)"><path d="M46,26.222L3,26.222C1.895,26.222 1,27.117 1,28.222L1,36.222C1,37.326 1.895,38.222 3,38.222L46,38.222C46,38.222 46,44.222 46,44.222C46,45.016 46.47,45.735 47.198,46.054C47.926,46.373 48.773,46.23 49.357,45.691L62.357,33.691C62.767,33.313 63,32.78 63,32.222C63,31.664 62.767,31.131 62.357,30.752L49.357,18.752C48.773,18.213 47.926,18.071 47.198,18.39C46.47,18.708 46,19.427 46,20.222L46,26.222ZM48,30.222C49.105,30.222 50,29.326 50,28.222L50,24.79C50,24.79 58.051,32.222 58.051,32.222C58.051,32.222 50,39.654 50,39.654C50,39.654 50,36.222 50,36.222C50,35.117 49.105,34.222 48,34.222L5,34.222C5,34.222 5,30.222 5,30.222C5,30.222 48,30.222 48,30.222Z"/></g></svg>